<svg width="24" height="24" viewBox="0 0 24 24" fill="none" xmlns="http://www.w3.org/2000/svg">
<path d="M18 0C21.3137 0 24 2.68629 24 6V18C24 21.3137 21.3137 24 18 24H6C2.68629 24 0 21.3137 0 18V6C0 2.68629 2.68629 0 6 0H18ZM15.7783 7.29297C15.3878 6.90248 14.7548 6.90256 14.3643 7.29297L11.5352 10.1211L8.70703 7.29297C8.31651 6.90244 7.68349 6.90244 7.29297 7.29297C6.90244 7.68349 6.90244 8.31651 7.29297 8.70703L10.1211 11.5352L7.29297 14.3643C6.90256 14.7548 6.90248 15.3878 7.29297 15.7783C7.68347 16.1687 8.31653 16.1687 8.70703 15.7783L11.5352 12.9502L14.3643 15.7783C14.7548 16.1686 15.3879 16.1688 15.7783 15.7783C16.1688 15.3879 16.1686 14.7548 15.7783 14.3643L12.9502 11.5352L15.7783 8.70703C16.1687 8.31653 16.1687 7.68347 15.7783 7.29297Z" fill="white"/>
</svg>
